<svg width="40" height="40" viewBox="0 0 40 40" fill="none" xmlns="http://www.w3.org/2000/svg">
<path opacity="0.4" d="M26.9833 14.7633C26.3333 14.7633 25.8166 14.2467 25.8166 13.5967V11.4633C25.8179 10.6516 25.6489 9.84855 25.3204 9.10618C24.9919 8.36382 24.5114 7.69862 23.9098 7.15357C23.3082 6.60853 22.5989 6.19575 21.8279 5.94193C21.0568 5.68811 20.241 5.59888 19.4333 5.68001C16.6333 5.94668 14.1833 8.79668 14.1833 11.7633V13.2633C14.1833 13.9133 13.6666 14.43 13.0166 14.43C12.3666 14.43 11.85 13.9133 11.85 13.2633V11.7633C11.85 7.59668 15.2166 3.74668 19.2 3.36335C21.5166 3.14668 23.75 3.88001 25.4666 5.44668C27.1666 6.98001 28.1333 9.18001 28.1333 11.4633V13.5967C28.1333 14.2467 27.6166 14.7633 26.9833 14.7633Z" fill="#EAECEF"/>
<path d="M33.2667 14.93C31.8667 13.38 29.5667 12.63 26.2 12.63H13.8C10.4334 12.63 8.13336 13.38 6.73336 14.93C5.11669 16.73 5.16669 19.13 5.35002 20.7967L6.51669 30.08C6.86669 33.33 8.18336 36.6633 15.35 36.6633H24.65C31.8167 36.6633 33.1334 33.33 33.4834 30.0967L34.65 20.78C34.8334 19.13 34.8667 16.73 33.2667 14.93ZM14.0334 21.9133H14.0167C13.1 21.9133 12.35 21.1633 12.35 20.2467C12.35 19.33 13.1 18.58 14.0167 18.58C14.95 18.58 15.7 19.33 15.7 20.2467C15.7 21.1633 14.95 21.9133 14.0334 21.9133ZM25.7 21.9133H25.6834C24.7667 21.9133 24.0167 21.1633 24.0167 20.2467C24.0167 19.33 24.7667 18.58 25.6834 18.58C26.6167 18.58 27.3667 19.33 27.3667 20.2467C27.3667 21.1633 26.6167 21.9133 25.7 21.9133Z" fill="#EAECEF"/>
</svg>
