<svg width="40" height="40" viewBox="0 0 40 40" fill="none" xmlns="http://www.w3.org/2000/svg">
<path d="M27.9166 5.93334V3.33334C27.9166 2.65001 27.35 2.08334 26.6666 2.08334C25.9833 2.08334 25.4166 2.65001 25.4166 3.33334V5.83334H14.5833V3.33334C14.5833 2.65001 14.0166 2.08334 13.3333 2.08334C12.65 2.08334 12.0833 2.65001 12.0833 3.33334V5.93334C7.58331 6.35001 5.39998 9.03334 5.06664 13.0167C5.03331 13.5 5.43331 13.9 5.89998 13.9H34.1C34.5833 13.9 34.9833 13.4833 34.9333 13.0167C34.6 9.03334 32.4166 6.35001 27.9166 5.93334Z" fill="#EAECEF"/>
<path opacity="0.4" d="M33.3333 16.4C34.25 16.4 35 17.15 35 18.0667V28.3333C35 33.3333 32.5 36.6667 26.6667 36.6667H13.3333C7.5 36.6667 5 33.3333 5 28.3333V18.0667C5 17.15 5.75 16.4 6.66667 16.4H33.3333Z" fill="#EAECEF"/>
<path d="M14.1667 24.9983C13.7333 24.9983 13.3 24.815 12.9833 24.515C12.6833 24.1983 12.5 23.765 12.5 23.3317C12.5 22.8983 12.6833 22.465 12.9833 22.1483C13.45 21.6817 14.1833 21.5317 14.8 21.7983C15.0167 21.8817 15.2 21.9983 15.35 22.1483C15.65 22.465 15.8333 22.8983 15.8333 23.3317C15.8333 23.765 15.65 24.1983 15.35 24.515C15.0333 24.815 14.6 24.9983 14.1667 24.9983ZM20 24.9983C19.5667 24.9983 19.1333 24.815 18.8167 24.515C18.5167 24.1983 18.3333 23.765 18.3333 23.3317C18.3333 22.8983 18.5167 22.465 18.8167 22.1483C18.9667 21.9983 19.15 21.8817 19.3667 21.7983C19.9833 21.5317 20.7167 21.6817 21.1833 22.1483C21.4833 22.465 21.6667 22.8983 21.6667 23.3317C21.6667 23.765 21.4833 24.1983 21.1833 24.515L20.9333 24.715C20.8333 24.7817 20.7333 24.8317 20.6333 24.865C20.5333 24.915 20.4333 24.9483 20.3333 24.965C20.2167 24.9817 20.1167 24.9983 20 24.9983ZM25.8333 25C25.4 25 24.9667 24.8167 24.65 24.5167C24.35 24.2 24.1667 23.7667 24.1667 23.3333C24.1667 22.9 24.35 22.4667 24.65 22.15C24.8167 22 24.9833 21.8833 25.2 21.8C25.5 21.6667 25.8333 21.6333 26.1667 21.7C26.2667 21.7167 26.3667 21.75 26.4667 21.8C26.5667 21.8333 26.6667 21.8833 26.7667 21.95L27.0167 22.15C27.3167 22.4667 27.5 22.9 27.5 23.3333C27.5 23.7667 27.3167 24.2 27.0167 24.5167L26.7667 24.7167C26.6667 24.7833 26.5667 24.8333 26.4667 24.8667C26.3667 24.9167 26.2667 24.95 26.1667 24.9667C26.05 24.9833 25.9333 25 25.8333 25ZM14.1667 30.8333C13.95 30.8333 13.7333 30.7833 13.5333 30.7C13.3167 30.6167 13.15 30.5 12.9833 30.35C12.6833 30.0333 12.5 29.6 12.5 29.1667C12.5 28.7333 12.6833 28.3 12.9833 27.9833C13.15 27.8333 13.3167 27.7167 13.5333 27.6333C13.8333 27.5 14.1667 27.4667 14.5 27.5333C14.6 27.55 14.7 27.5833 14.8 27.6333C14.9 27.6667 15 27.7167 15.1 27.7833L15.35 27.9833C15.65 28.3 15.8333 28.7333 15.8333 29.1667C15.8333 29.6 15.65 30.0333 15.35 30.35C15.2667 30.4167 15.1833 30.5 15.1 30.55C15 30.6167 14.9 30.6667 14.8 30.7C14.7 30.75 14.6 30.7833 14.5 30.8C14.3833 30.8167 14.2833 30.8333 14.1667 30.8333ZM20 30.8333C19.5667 30.8333 19.1333 30.65 18.8167 30.35C18.5167 30.0333 18.3333 29.6 18.3333 29.1667C18.3333 28.7333 18.5167 28.3 18.8167 27.9833C19.4333 27.3667 20.5667 27.3667 21.1833 27.9833C21.4833 28.3 21.6667 28.7333 21.6667 29.1667C21.6667 29.6 21.4833 30.0333 21.1833 30.35C20.8667 30.65 20.4333 30.8333 20 30.8333ZM25.8333 30.8333C25.4 30.8333 24.9667 30.65 24.65 30.35C24.35 30.0333 24.1667 29.6 24.1667 29.1667C24.1667 28.7333 24.35 28.3 24.65 27.9833C25.2667 27.3667 26.4 27.3667 27.0167 27.9833C27.3167 28.3 27.5 28.7333 27.5 29.1667C27.5 29.6 27.3167 30.0333 27.0167 30.35C26.7 30.65 26.2667 30.8333 25.8333 30.8333Z" fill="#181A1B"/>
</svg>
