<svg width="40" height="40" viewBox="0 0 40 40" fill="none" xmlns="http://www.w3.org/2000/svg">
<path opacity="0.4" d="M35.5 18.0667C36.15 18.0667 36.6667 17.55 36.6667 16.9V15.35C36.6667 8.51665 34.5834 6.43332 27.75 6.43332H12.25C5.41671 6.43332 3.33337 8.51665 3.33337 15.35V16.1333C3.33337 16.7833 3.85004 17.3 4.50004 17.3C6.00004 17.3 7.21671 18.5167 7.21671 20.0167C7.21671 21.5167 6.00004 22.7167 4.50004 22.7167C3.85004 22.7167 3.33337 23.2333 3.33337 23.8833V24.6667C3.33337 31.5 5.41671 33.5833 12.25 33.5833H27.75C34.5834 33.5833 36.6667 31.5 36.6667 24.6667C36.6667 24.0167 36.15 23.5 35.5 23.5C34.7795 23.5 34.0885 23.2138 33.5791 22.7043C33.0696 22.1948 32.7834 21.5038 32.7834 20.7833C32.7834 20.0628 33.0696 19.3718 33.5791 18.8623C34.0885 18.3529 34.7795 18.0667 35.5 18.0667Z" fill="#EAECEF"/>
<path d="M24.9967 26.465C24.0634 26.465 23.3134 25.715 23.3134 24.7983C23.3134 23.8817 24.0634 23.1317 24.98 23.1317C25.8967 23.1317 26.6467 23.8817 26.6467 24.7983C26.6467 25.715 25.93 26.465 24.9967 26.465ZM14.9967 18.1317C14.0634 18.1317 13.3134 17.3817 13.3134 16.465C13.3134 15.5483 14.0634 14.7983 14.98 14.7983C15.8967 14.7983 16.6467 15.5483 16.6467 16.465C16.6467 17.3817 15.93 18.1317 14.9967 18.1317ZM14.3834 27.3833C14.0667 27.3833 13.75 27.2667 13.5 27.0167C13.2676 26.7814 13.1372 26.4641 13.1372 26.1333C13.1372 25.8026 13.2676 25.4852 13.5 25.25L24.7167 14.0333C25.2 13.55 26 13.55 26.4834 14.0333C26.9667 14.5167 26.9667 15.3167 26.4834 15.8L15.2667 27.0167C15.0334 27.2667 14.7 27.3833 14.3834 27.3833Z" fill="#EAECEF"/>
</svg>
