<svg width="40" height="40" viewBox="0 0 40 40" fill="none" xmlns="http://www.w3.org/2000/svg">
<path opacity="0.4" d="M31.6667 15C31.6667 17.4167 30.95 19.6333 29.7167 21.4833C28.8129 22.8313 27.6373 23.9753 26.2654 24.8421C24.8934 25.7089 23.3554 26.2793 21.75 26.5167C21.1833 26.6167 20.6 26.6667 20 26.6667C19.4 26.6667 18.8167 26.6167 18.25 26.5167C16.6446 26.2793 15.1066 25.7089 13.7346 24.8421C12.3627 23.9753 11.1871 22.8313 10.2833 21.4833C9.00384 19.5639 8.32499 17.3068 8.33333 15C8.33333 8.55001 13.55 3.33334 20 3.33334C26.45 3.33334 31.6667 8.55001 31.6667 15Z" fill="#EAECEF"/>
<path d="M35.4166 30.78L32.6666 31.43C32.0499 31.58 31.5666 32.0467 31.4333 32.6633L30.8499 35.1133C30.7784 35.4141 30.6246 35.689 30.4058 35.9073C30.1869 36.1257 29.9117 36.2789 29.6108 36.3498C29.3099 36.4207 28.9952 36.4065 28.7019 36.3088C28.4086 36.2112 28.1482 36.0338 27.9499 35.7967L19.9999 26.6633L12.0499 35.8133C11.8516 36.0505 11.5913 36.2278 11.298 36.3255C11.0047 36.4232 10.69 36.4374 10.3891 36.3665C10.0882 36.2956 9.81295 36.1424 9.59412 35.924C9.37528 35.7057 9.22149 35.4307 9.14994 35.13L8.56661 32.68C8.49571 32.3802 8.34279 32.1061 8.12498 31.8883C7.90716 31.6705 7.63304 31.5176 7.33327 31.4467L4.58327 30.7967C4.29515 30.7276 4.03056 30.5832 3.8166 30.3782C3.60263 30.1733 3.44698 29.9152 3.36559 29.6303C3.28419 29.3454 3.27998 29.044 3.35337 28.7569C3.42676 28.4699 3.57513 28.2075 3.78327 27.9967L10.2833 21.4967C11.1871 22.8445 12.3627 23.9885 13.7346 24.8553C15.1066 25.7221 16.6446 26.2925 18.2499 26.53C18.8166 26.63 19.3999 26.68 19.9999 26.68C20.5999 26.68 21.1833 26.63 21.7499 26.53C25.0666 26.0467 27.9166 24.1633 29.7166 21.4967L36.2166 27.9967C37.1333 28.8967 36.6833 30.48 35.4166 30.78ZM20.9666 9.96666L21.9499 11.9333C22.0833 12.2 22.4333 12.4667 22.7499 12.5167L24.5333 12.8167C25.6666 13 25.9333 13.8333 25.1166 14.65L23.7333 16.0333C23.4999 16.2667 23.3666 16.7167 23.4499 17.05L23.8499 18.7667C24.1666 20.1167 23.4499 20.65 22.2499 19.9333L20.5833 18.95C20.414 18.8597 20.2251 18.8124 20.0333 18.8124C19.8414 18.8124 19.6525 18.8597 19.4833 18.95L17.8166 19.9333C16.6166 20.6333 15.8999 20.1167 16.2166 18.7667L16.6166 17.05C16.6833 16.7333 16.5666 16.2667 16.3333 16.0333L14.9499 14.65C14.1333 13.8333 14.3999 13.0167 15.5333 12.8167L17.3166 12.5167C17.6166 12.4667 17.9666 12.2 18.0999 11.9333L19.0833 9.96666C19.5666 8.89999 20.4333 8.89999 20.9666 9.96666Z" fill="#EAECEF"/>
</svg>
