<svg width="40" height="40" viewBox="0 0 40 40" fill="none" xmlns="http://www.w3.org/2000/svg">
<path d="M35.1517 11.6333C33.735 10.0667 31.3684 9.28335 27.935 9.28335H27.535V9.21668C27.535 6.41668 27.535 2.95001 21.2684 2.95001H18.735C12.4684 2.95001 12.4684 6.43335 12.4684 9.21668V9.30001H12.0684C8.61836 9.30001 6.26836 10.0833 4.85169 11.65C3.20169 13.4833 3.25169 15.95 3.41836 17.6333L3.43502 17.75L3.60169 19.5C3.61836 19.5167 3.65169 19.55 3.68502 19.5667C4.23502 19.9333 4.80169 20.3 5.40169 20.6333C5.63502 20.7833 5.88502 20.9167 6.13502 21.05C8.98502 22.6167 12.1184 23.6667 15.3017 24.1833C15.4517 25.75 16.135 27.5833 19.785 27.5833C23.435 27.5833 24.1517 25.7667 24.2684 24.15C27.6684 23.6 30.9517 22.4167 33.9184 20.6833C34.0184 20.6333 34.085 20.5833 34.1684 20.5333C34.935 20.1 35.6517 19.6333 36.3517 19.1167C36.3872 19.0979 36.4162 19.0689 36.435 19.0333L36.5017 18.4333L36.585 17.65C36.6017 17.55 36.6017 17.4667 36.6184 17.35C36.7517 15.6667 36.7184 13.3667 35.1517 11.6333ZM21.8184 23.05C21.8184 24.8167 21.8184 25.0833 19.7684 25.0833C17.7184 25.0833 17.7184 24.7667 17.7184 23.0667V20.9667H21.8184V23.05ZM14.8517 9.28335V9.21668C14.8517 6.38335 14.8517 5.33335 18.735 5.33335H21.2684C25.1517 5.33335 25.1517 6.40001 25.1517 9.21668V9.30001H14.8517V9.28335Z" fill="#EAECEF"/>
<path opacity="0.4" d="M34.1666 20.4967L33.9166 20.6467C30.937 22.3783 27.667 23.553 24.2666 24.1133C24.1333 25.7133 23.4333 27.5467 19.7833 27.5467C16.1333 27.5467 15.4333 25.73 15.3 24.1467C12.1166 23.6467 8.98331 22.5967 6.13331 21.0133C5.88331 20.88 5.63331 20.7467 5.39998 20.5967C4.79998 20.2633 4.23331 19.8967 3.68331 19.53C3.64998 19.5133 3.61664 19.48 3.59998 19.4633L4.61664 30.3133C4.96664 33.63 6.33331 37.0467 13.6666 37.0467H26.3666C33.7 37.0467 35.0666 33.63 35.4166 30.2967L36.4666 18.9967C36.4479 19.0322 36.4188 19.0612 36.3833 19.08C35.6666 19.5967 34.9333 20.08 34.1666 20.4967Z" fill="#EAECEF"/>
</svg>
