<svg width="40" height="40" viewBox="0 0 40 40" fill="none" xmlns="http://www.w3.org/2000/svg">
<path opacity="0.4" d="M35.6166 18.9833V28.9667C35.6166 33.5667 31.8833 37.3 27.2833 37.3H12.7166C8.11663 37.3 4.3833 33.5667 4.3833 28.9667V19.1C5.64997 20.4667 7.44997 21.25 9.39997 21.25C11.5 21.25 13.5166 20.2 14.7833 18.5167C15.3617 19.3655 16.1401 20.0588 17.0499 20.5355C17.9597 21.0122 18.9729 21.2576 20 21.25C22.1333 21.25 24.0333 20.25 25.1833 18.5833C26.4666 20.2333 28.45 21.25 30.5166 21.25C32.5333 21.25 34.3666 20.4333 35.6166 18.9833Z" fill="#EAECEF"/>
<path d="M24.9834 2.08334H14.9834L13.75 14.35C13.65 15.4833 13.8167 16.55 14.2334 17.5167C15.2 19.7833 17.4667 21.25 20 21.25C22.5667 21.25 24.7834 19.8167 25.7834 17.5333C26.0834 16.8167 26.2667 15.9833 26.2834 15.1333V14.8167L24.9834 2.08334Z" fill="#EAECEF"/>
<path opacity="0.6" d="M37.2667 13.7833L36.7834 9.16668C36.0834 4.13334 33.8 2.08334 28.9167 2.08334H22.5167L23.75 14.5833C23.7667 14.75 23.7834 14.9333 23.7834 15.25C23.8834 16.1167 24.15 16.9167 24.55 17.6333C25.75 19.8333 28.0834 21.25 30.5167 21.25C32.7334 21.25 34.7334 20.2667 35.9834 18.5333C36.9834 17.2 37.4334 15.5167 37.2667 13.7833ZM10.9834 2.08334C6.08336 2.08334 3.81669 4.13334 3.10003 9.21668L2.65003 13.8C2.48336 15.5833 2.96669 17.3167 4.01669 18.6667C5.28336 20.3167 7.23336 21.25 9.40003 21.25C11.8334 21.25 14.1667 19.8333 15.35 17.6667C15.7834 16.9167 16.0667 16.05 16.15 15.15L17.45 2.10001H10.9834V2.08334Z" fill="#EAECEF"/>
<path d="M18.9166 27.7667C17.8935 27.8759 16.9471 28.3607 16.2606 29.1273C15.5741 29.8938 15.1962 30.8877 15.2 31.9167V37.3H24.7833V32.5C24.8 29.0167 22.75 27.3667 18.9166 27.7667Z" fill="#EAECEF"/>
</svg>
