<svg width="24" height="24" viewBox="0 0 24 24" fill="none" xmlns="http://www.w3.org/2000/svg">
<g clip-path="url(#clip0_7_180)">
<path d="M16.9926 8.57879C16.9863 9.6793 16.7688 10.7306 16.3789 11.6943C17.1639 11.8833 17.8784 12.3146 18.4161 12.9401C18.6692 13.2346 18.6358 13.6785 18.3412 13.9316C18.0468 14.1848 17.603 14.1513 17.3497 13.8568C16.9302 13.3687 16.3424 13.0662 15.7101 13.0048C15.3022 13.6569 14.8082 14.2499 14.2438 14.7674H15.8273C16.2156 14.7674 16.5304 15.0822 16.5304 15.4705C16.5304 15.8588 16.2156 16.1736 15.8273 16.1736H13.0948C13.3987 17.1984 14.3484 17.9483 15.4705 17.9483C16.1927 17.9483 16.8776 17.6333 17.3498 17.0841C17.6029 16.7897 18.0469 16.7562 18.3413 17.0093C18.6358 17.2624 18.6693 17.7063 18.4161 18.0008C17.6766 18.8611 16.6029 19.3545 15.4705 19.3545C13.6416 19.3545 12.1049 18.0835 11.6947 16.3787C10.7308 16.7688 9.67944 16.9862 8.57883 16.9926C9.27675 20.1549 12.1015 22.528 15.4705 22.528C19.3621 22.528 22.528 19.362 22.528 15.4705C22.528 12.1015 20.1549 9.27675 16.9926 8.57879Z" fill="#989898"/>
<path d="M15.5871 8.52952C15.5871 4.63797 12.4211 1.47204 8.52957 1.47204C4.63807 1.47204 1.47204 4.63802 1.47204 8.52952C1.47204 12.421 4.63802 15.5871 8.52952 15.5871C12.421 15.5871 15.5871 12.4211 15.5871 8.52952ZM7.82641 12.1965V12.0569H7.11743C6.72913 12.0569 6.41432 11.7421 6.41432 11.3537C6.41432 10.9654 6.72913 10.6506 7.11743 10.6506H8.52952C8.92045 10.6506 9.2385 10.3326 9.2385 9.94166C9.2385 9.55072 8.92045 9.23268 8.52952 9.23268C7.3632 9.23268 6.41432 8.28381 6.41432 7.11748C6.41432 6.19762 7.00475 5.41342 7.82641 5.12289V4.86264C7.82641 4.47434 8.14122 4.15953 8.52952 4.15953C8.91783 4.15953 9.23264 4.47434 9.23264 4.86264V5.00228H9.94161C10.3299 5.00228 10.6447 5.31709 10.6447 5.7054C10.6447 6.0937 10.3299 6.40851 9.94161 6.40851H8.52952C8.13859 6.40851 7.82055 6.72655 7.82055 7.11748C7.82055 7.50841 8.13859 7.82646 8.52952 7.82646C9.69585 7.82646 10.6447 8.77533 10.6447 9.94166C10.6447 10.8615 10.0543 11.6457 9.23264 11.9363V12.1965C9.23264 12.5849 8.91783 12.8997 8.52952 12.8997C8.14122 12.8997 7.82641 12.5848 7.82641 12.1965Z" fill="#989898"/>
<path d="M8.95742 22.0494C6.42401 21.2831 4.123 19.3698 2.73313 16.9312L3.19151 17.0854C3.55962 17.2094 3.95828 17.0112 4.08212 16.6431C4.20592 16.2751 4.00792 15.8764 3.63986 15.7526L1.61035 15.0699C1.24225 14.9463 0.84358 15.1442 0.719738 15.5122L0.0371081 17.5417C-0.0866869 17.9098 0.11131 18.3085 0.479367 18.4323C0.553709 18.4573 0.629271 18.4692 0.703613 18.4692C0.997234 18.4692 1.27117 18.2837 1.36993 17.99L1.49926 17.6056C2.15231 18.7561 2.99398 19.8195 3.97609 20.728C5.32495 21.9758 6.90667 22.8982 8.55023 23.3954C8.6181 23.4159 8.68663 23.4257 8.75408 23.4257C9.05591 23.4257 9.33495 23.2297 9.42682 22.9259C9.53927 22.5544 9.32909 22.1619 8.95742 22.0494Z" fill="#989898"/>
<path d="M23.5209 5.56773C23.1529 5.44402 22.7541 5.64197 22.6303 6.01003L22.5008 6.39492C21.8442 5.23801 20.997 4.169 20.0084 3.25743C18.6632 2.01714 17.0869 1.09986 15.45 0.604631C15.0782 0.492086 14.6858 0.702364 14.5734 1.07403C14.461 1.44574 14.6711 1.83822 15.0428 1.95063C17.5735 2.71622 19.8762 4.63071 21.2664 7.06859L20.8087 6.91466C20.4407 6.79077 20.042 6.98886 19.9181 7.35692C19.7943 7.72497 19.9923 8.12369 20.3604 8.24748L22.3899 8.93016C22.4643 8.95514 22.5398 8.967 22.6142 8.967C22.9078 8.967 23.1817 8.78156 23.2805 8.48785L23.9631 6.45834C24.0869 6.09023 23.8889 5.69152 23.5209 5.56773Z" fill="#989898"/>
</g>
<defs>
<clipPath id="clip0_7_180">
<rect width="24" height="24" fill="white"/>
</clipPath>
</defs>
</svg>
