<svg width="24" height="24" viewBox="0 0 24 24" fill="none" xmlns="http://www.w3.org/2000/svg">
<g clip-path="url(#clip0_7_227)">
<path d="M19.1053 4.10986C17.6487 1.59623 15.0616 0.0605625 12.1846 0.00187501C12.0618 -0.000656237 11.9382 -0.000656237 11.8154 0.00187501C8.93845 0.0605625 6.35132 1.59623 4.89473 4.10986C3.40588 6.67917 3.36515 9.76542 4.78574 12.3656L10.7371 23.2588C10.7398 23.2636 10.7425 23.2684 10.7452 23.2732C11.0071 23.7283 11.4762 24 12.0001 24C12.524 24 12.993 23.7283 13.2548 23.2732C13.2576 23.2684 13.2603 23.2636 13.2629 23.2588L19.2143 12.3656C20.6348 9.76542 20.5941 6.67917 19.1053 4.10986ZM12 10.875C10.139 10.875 8.62499 9.36098 8.62499 7.5C8.62499 5.63902 10.139 4.125 12 4.125C13.861 4.125 15.375 5.63902 15.375 7.5C15.375 9.36098 13.861 10.875 12 10.875Z" fill="#989898"/>
</g>
<defs>
<clipPath id="clip0_7_227">
<rect width="24" height="24" fill="white"/>
</clipPath>
</defs>
</svg>
