<svg width="41" height="38" viewBox="0 0 41 38" fill="none" xmlns="http://www.w3.org/2000/svg">
<rect width="38" height="36" transform="translate(2.34082 2)" fill="#E40641"/>
<rect width="38" height="36" transform="translate(0.34082)" fill="#2B3139"/>
<circle cx="20.3408" cy="12" r="8.18182" stroke="#E40641" stroke-width="3.63636"/>
<mask id="path-2-inside-1_2_322" fill="white">
<path d="M28.4194 25C29.4805 25 30.3627 25.8719 30.1146 26.9037C29.7114 28.5802 28.7805 30.1322 27.4119 31.364C25.5365 33.0518 22.993 34 20.3408 34C17.6887 34 15.1451 33.0518 13.2698 31.364C11.9012 30.1322 10.9702 28.5802 10.567 26.9037C10.3189 25.8719 11.2011 25 12.2623 25V25C13.3235 25 14.1532 25.8896 14.547 26.8751C14.8511 27.6362 15.3395 28.3355 15.9871 28.9183C17.1418 29.9575 18.7079 30.5414 20.3408 30.5414C21.9738 30.5414 23.5398 29.9575 24.6945 28.9183C25.3421 28.3355 25.8306 27.6362 26.1347 26.8751C26.5284 25.8896 27.3582 25 28.4194 25V25Z"/>
</mask>
<path d="M28.4194 25C29.4805 25 30.3627 25.8719 30.1146 26.9037C29.7114 28.5802 28.7805 30.1322 27.4119 31.364C25.5365 33.0518 22.993 34 20.3408 34C17.6887 34 15.1451 33.0518 13.2698 31.364C11.9012 30.1322 10.9702 28.5802 10.567 26.9037C10.3189 25.8719 11.2011 25 12.2623 25V25C13.3235 25 14.1532 25.8896 14.547 26.8751C14.8511 27.6362 15.3395 28.3355 15.9871 28.9183C17.1418 29.9575 18.7079 30.5414 20.3408 30.5414C21.9738 30.5414 23.5398 29.9575 24.6945 28.9183C25.3421 28.3355 25.8306 27.6362 26.1347 26.8751C26.5284 25.8896 27.3582 25 28.4194 25V25Z" stroke="#E40641" stroke-width="8" mask="url(#path-2-inside-1_2_322)"/>
</svg>
