<svg width="25" height="24" viewBox="0 0 25 24" fill="none" xmlns="http://www.w3.org/2000/svg">
<path d="M12.3312 5.62592C11.0701 5.62568 9.83722 5.99943 8.7885 6.69991C7.73979 7.40039 6.92235 8.39613 6.43957 9.5612C5.95679 10.7263 5.83034 12.0083 6.07623 13.2453C6.32211 14.4822 6.92928 15.6184 7.82095 16.5103C8.71262 17.4021 9.84874 18.0095 11.0856 18.2557C12.3225 18.5018 13.6046 18.3756 14.7698 17.8931C15.9349 17.4105 16.9308 16.5933 17.6315 15.5447C18.3322 14.4961 18.7062 13.2633 18.7062 12.0022C18.7045 10.3119 18.0323 8.69124 16.8372 7.49587C15.6421 6.3005 14.0216 5.628 12.3312 5.62592Z" fill="#EAECEF"/>
<path d="M22.4665 10.877H20.9677C20.6693 10.877 20.3831 10.9956 20.1721 11.2066C19.9611 11.4176 19.8425 11.7038 19.8425 12.0022C19.8425 12.3006 19.9611 12.5868 20.1721 12.7978C20.3831 13.0088 20.6693 13.1274 20.9677 13.1274H22.4665C22.7649 13.1274 23.0511 13.0088 23.2621 12.7978C23.4731 12.5868 23.5916 12.3006 23.5916 12.0022C23.5916 11.7038 23.4731 11.4176 23.2621 11.2066C23.0511 10.9956 22.7649 10.877 22.4665 10.877Z" fill="#EAECEF"/>
<path d="M12.3312 19.4995C12.033 19.4999 11.7472 19.6186 11.5364 19.8295C11.3256 20.0405 11.207 20.3264 11.2068 20.6246V22.1248C11.2068 22.423 11.3252 22.709 11.5361 22.9198C11.747 23.1307 12.0329 23.2492 12.3311 23.2492C12.6293 23.2492 12.9153 23.1307 13.1262 22.9198C13.337 22.709 13.4555 22.423 13.4555 22.1248V20.6246C13.4553 20.3264 13.3368 20.0405 13.126 19.8296C12.9153 19.6186 12.6294 19.4999 12.3312 19.4995Z" fill="#EAECEF"/>
<path d="M4.83826 12.0022C4.838 11.704 4.71947 11.4181 4.50867 11.2071C4.29788 10.9962 4.01202 10.8775 3.71381 10.877H2.21528C1.91686 10.877 1.63066 10.9956 1.41965 11.2066C1.20863 11.4176 1.09009 11.7038 1.09009 12.0022C1.09009 12.3006 1.20863 12.5868 1.41965 12.7978C1.63066 13.0088 1.91686 13.1274 2.21528 13.1274H3.71381C4.01202 13.1269 4.29788 13.0082 4.50868 12.7973C4.71948 12.5863 4.838 12.3004 4.83826 12.0022Z" fill="#EAECEF"/>
<path d="M12.3313 4.50055C12.6295 4.5001 12.9154 4.38138 13.1262 4.17045C13.337 3.95952 13.4555 3.67358 13.4557 3.37537V1.87518C13.4557 1.57698 13.3373 1.291 13.1264 1.08014C12.9156 0.869283 12.6296 0.750824 12.3314 0.750824C12.0332 0.750824 11.7472 0.869283 11.5363 1.08014C11.3255 1.291 11.207 1.57698 11.207 1.87518V3.37537C11.2072 3.67356 11.3257 3.95949 11.5365 4.17043C11.7473 4.38137 12.0331 4.50009 12.3313 4.50055Z" fill="#EAECEF"/>
<path d="M19.2264 6.6972L20.2872 5.63642C20.3919 5.53209 20.475 5.40812 20.5318 5.27162C20.5886 5.13512 20.6179 4.98876 20.6181 4.84093C20.6182 4.69309 20.5892 4.54667 20.5327 4.41006C20.4762 4.27344 20.3933 4.14931 20.2887 4.04478C20.1842 3.94024 20.0601 3.85734 19.9235 3.80083C19.7869 3.74432 19.6404 3.71531 19.4926 3.71545C19.3448 3.7156 19.1984 3.7449 19.0619 3.80167C18.9254 3.85845 18.8014 3.94159 18.6971 4.04633L17.6363 5.10713C17.5316 5.21147 17.4484 5.33543 17.3916 5.47193C17.3349 5.60843 17.3056 5.75479 17.3054 5.90263C17.3053 6.05047 17.3343 6.19689 17.3908 6.3335C17.4473 6.47011 17.5302 6.59424 17.6347 6.69878C17.7393 6.80331 17.8634 6.88621 18 6.94272C18.1366 6.99922 18.2831 7.02823 18.4309 7.02809C18.5787 7.02794 18.7251 6.99864 18.8616 6.94186C18.9981 6.88508 19.1221 6.80194 19.2264 6.6972Z" fill="#EAECEF"/>
<path d="M19.2265 17.3073C19.1221 17.2026 18.9982 17.1195 18.8617 17.0627C18.7252 17.006 18.5788 16.9767 18.431 16.9766C18.2832 16.9765 18.1368 17.0055 18.0002 17.062C17.8636 17.1185 17.7395 17.2014 17.635 17.3059C17.5305 17.4104 17.4476 17.5345 17.3911 17.6711C17.3346 17.8077 17.3055 17.9541 17.3057 18.1019C17.3058 18.2498 17.3351 18.3961 17.3918 18.5326C17.4486 18.6691 17.5317 18.7931 17.6364 18.8974L18.6972 19.9582C18.8015 20.0629 18.9255 20.146 19.062 20.2027C19.1985 20.2595 19.3448 20.2888 19.4926 20.2889C19.6404 20.289 19.7868 20.26 19.9234 20.2035C20.06 20.147 20.1841 20.0641 20.2887 19.9596C20.3932 19.855 20.4761 19.7309 20.5326 19.5943C20.5891 19.4578 20.6181 19.3114 20.618 19.1635C20.6178 19.0157 20.5886 18.8694 20.5318 18.7329C20.4751 18.5964 20.392 18.4724 20.2873 18.3681L19.2265 17.3073Z" fill="#EAECEF"/>
<path d="M5.43601 17.3072L4.37523 18.368C4.27045 18.4723 4.18728 18.5963 4.13048 18.7328C4.07367 18.8693 4.04435 19.0157 4.04419 19.1635C4.04403 19.3114 4.07303 19.4578 4.12954 19.5944C4.18605 19.7311 4.26895 19.8552 4.3735 19.9598C4.47805 20.0643 4.6022 20.1472 4.73883 20.2037C4.87546 20.2602 5.0219 20.2892 5.16976 20.2891C5.31761 20.2889 5.46398 20.2596 5.60049 20.2028C5.737 20.146 5.86097 20.0628 5.96529 19.958L7.02609 18.8973C7.1308 18.7929 7.2139 18.669 7.27065 18.5325C7.3274 18.396 7.35668 18.2496 7.35681 18.1018C7.35694 17.954 7.32792 17.8076 7.27141 17.671C7.2149 17.5344 7.13201 17.4103 7.02749 17.3058C6.92296 17.2013 6.79885 17.1184 6.66226 17.0619C6.52567 17.0054 6.37928 16.9763 6.23146 16.9765C6.08364 16.9766 5.93729 17.0059 5.8008 17.0626C5.66431 17.1194 5.54035 17.2025 5.43601 17.3072Z" fill="#EAECEF"/>
<path d="M5.43628 6.69709C5.54065 6.80164 5.66461 6.8846 5.80106 6.94122C5.93751 6.99784 6.08379 7.02702 6.23152 7.02708C6.37925 7.02714 6.52555 6.99809 6.66205 6.94158C6.79855 6.88508 6.92258 6.80222 7.02704 6.69776C7.1315 6.5933 7.21436 6.46927 7.27086 6.33277C7.32737 6.19627 7.35642 6.04997 7.35636 5.90224C7.3563 5.75451 7.32712 5.60823 7.2705 5.47178C7.21388 5.33533 7.13092 5.21137 7.02636 5.107L5.96556 4.0462C5.86126 3.94131 5.73729 3.85804 5.60075 3.80115C5.46421 3.74426 5.31779 3.71487 5.16987 3.71466C5.02195 3.71446 4.87545 3.74344 4.73875 3.79995C4.60206 3.85646 4.47785 3.93939 4.37326 4.04398C4.26867 4.14858 4.18574 4.27278 4.12923 4.40948C4.07272 4.54618 4.04374 4.69268 4.04395 4.8406C4.04415 4.98852 4.07355 5.13494 4.13044 5.27148C4.18733 5.40802 4.2706 5.53199 4.37549 5.63629L5.43628 6.69709Z" fill="#EAECEF"/>
</svg>
