<svg width="24" height="24" viewBox="0 0 24 24" fill="none" xmlns="http://www.w3.org/2000/svg">
<g clip-path="url(#clip0_7_194)">
<path d="M13.4837 11.4757C15.1814 11.2625 16.8554 11.9457 17.9289 13.2682C18.0077 13.3653 18.1484 13.3865 18.2493 13.3128C18.7357 12.9574 19.1543 12.5135 19.4827 12.001C21.5287 8.80875 19.2566 4.5 15.375 4.5C12.8421 4.5 10.7543 6.44114 10.522 8.91408C10.5126 9.01397 10.5678 9.10936 10.6596 9.14991C11.7192 9.61856 12.6244 10.3907 13.2603 11.3724C13.3085 11.4469 13.3957 11.4867 13.4837 11.4757Z" fill="#989898"/>
<path d="M15.375 3.75C15.7892 3.75 16.125 3.41419 16.125 3V1.5C16.125 1.08581 15.7892 0.75 15.375 0.75C14.9608 0.75 14.625 1.08581 14.625 1.5V3C14.625 3.41419 14.9608 3.75 15.375 3.75Z" fill="#989898"/>
<path d="M23.25 8.625H21.75C21.3358 8.625 21 8.96081 21 9.375C21 9.78919 21.3358 10.125 21.75 10.125H23.25C23.6642 10.125 24 9.78919 24 9.375C24 8.96081 23.6642 8.625 23.25 8.625Z" fill="#989898"/>
<path d="M20.4131 13.3525C20.1203 13.0596 19.6454 13.0596 19.3525 13.3525C19.0596 13.6454 19.0596 14.1203 19.3525 14.4131L20.4131 15.4738C20.5596 15.6202 20.7515 15.6935 20.9434 15.6935C21.6057 15.6935 21.9475 14.8869 21.4737 14.4132L20.4131 13.3525Z" fill="#989898"/>
<path d="M10.3369 5.39752C10.6298 5.69044 11.1046 5.69044 11.3975 5.39752C11.6904 5.10459 11.6904 4.62975 11.3975 4.33687L10.3369 3.27623C10.0441 2.98336 9.56921 2.98336 9.27624 3.27623C8.98332 3.56916 8.98332 4.044 9.27624 4.33687L10.3369 5.39752Z" fill="#989898"/>
<path d="M19.8828 5.61717C20.0748 5.61717 20.2667 5.54395 20.4131 5.39747L21.4738 4.33683C21.7667 4.04391 21.7667 3.56906 21.4738 3.27619C21.1809 2.98331 20.706 2.98327 20.4131 3.27619L19.3525 4.33687C18.8786 4.81073 19.2207 5.61717 19.8828 5.61717Z" fill="#989898"/>
<path d="M17.4623 17.0625C18.0405 14.2137 15.0571 12.0173 12.5271 13.3156C11.971 11.4805 10.2667 10.1445 8.25 10.1445C5.63278 10.1445 3.56653 12.3861 3.79922 15.0128C1.67334 15.1789 0 16.9565 0 19.125C0 21.3968 1.84055 23.25 4.125 23.25H17.5312C19.2399 23.25 20.625 21.8649 20.625 20.1562C20.625 18.5232 19.34 17.0625 17.4623 17.0625Z" fill="#989898"/>
</g>
<defs>
<clipPath id="clip0_7_194">
<rect width="24" height="24" fill="white"/>
</clipPath>
</defs>
</svg>
